<svg xmlns="http://www.w3.org/2000/svg" viewBox="0 0 120 120" width="120" height="120">
  <defs>
    <radialGradient id="g-bubble" cx="40%" cy="35%">
      <stop offset="0%" stop-color="#fff" stop-opacity="0.55"></stop>
      <stop offset="45%" stop-color="#B8DEFF" stop-opacity="1"></stop>
      <stop offset="100%" stop-color="#7AB8E8" stop-opacity="1"></stop>
    </radialGradient>
    <filter id="sh-bubble" x="-20%" y="-10%" width="140%" height="130%">
      <feDropShadow dx="0" dy="3" stdDeviation="3" flood-color="#1F1A17" flood-opacity="0.22"></feDropShadow>
    </filter>
  </defs>
  
  <ellipse cx="60" cy="108" rx="32" ry="5" fill="#1F1A17" opacity="0.18"></ellipse>
  
  <path d="M60 20&#xA;           C 30 20, 18 50, 22 78&#xA;           C 24 96, 40 104, 60 104&#xA;           C 80 104, 96 96, 98 78&#xA;           C 102 50, 90 20, 60 20 Z" fill="url(#g-bubble)" stroke="#7AB8E8" stroke-width="2.5" filter="url(#sh-bubble)"></path>
  
  <ellipse cx="46" cy="42" rx="12" ry="8" fill="#fff" opacity="0.55"></ellipse>
  <ellipse cx="40" cy="38" rx="4" ry="3" fill="#fff" opacity="0.9"></ellipse>
  
  <ellipse cx="50" cy="62" rx="4" ry="5" fill="#1F1A17"></ellipse>
  <ellipse cx="70" cy="62" rx="4" ry="5" fill="#1F1A17"></ellipse>
  <circle cx="51.5" cy="60" r="1.3" fill="#fff"></circle>
  <circle cx="71.5" cy="60" r="1.3" fill="#fff"></circle>
  
  <path d="M52 76 Q 60 82 68 76" stroke="#1F1A17" stroke-width="2" stroke-linecap="round" fill="none"></path>
  
  <path d="M88 32 l2 5 5 2 -5 2 -2 5 -2 -5 -5 -2 5 -2 z" fill="#F4CF6A"></path>
</svg>